<?xml version="1.0" encoding="UTF-8" standalone="no"?>
<svg
   width="20"
   height="20"
   fill="none"
   version="1.1"
   id="svg7"
   xmlns="http://www.w3.org/2000/svg"
   xmlns:svg="http://www.w3.org/2000/svg">
  <defs
     id="defs7" />
  <g
     class="fills"
     id="g1"
     transform="translate(-2,-2)">
    <rect
       rx="0"
       ry="0"
       width="24"
       height="24"
       class="frame-background"
       id="rect1"
       x="0"
       y="0" />
  </g>
  <g
     class="frame-children"
     id="g7"
     transform="translate(-2,-2)">
    <path
       d="m 15,3 h 4 a 2,2 0 0 1 2,2 v 14 a 2,2 0 0 1 -2,2 h -4"
       style="fill:none"
       class="fills"
       id="path1" />
    <g
       stroke-linecap="round"
       stroke-linejoin="round"
       class="strokes"
       id="g2">
      <path
         d="m 15,3 h 4 a 2,2 0 0 1 2,2 v 14 a 2,2 0 0 1 -2,2 h -4"
         style="fill:none;stroke:#000000;stroke-width:2;stroke-opacity:1"
         class="stroke-shape"
         id="path2" />
    </g>
    <path
       d="M 10,17 15,12 10,7"
       style="fill:none"
       class="fills"
       id="path3" />
    <g
       stroke-linecap="round"
       stroke-linejoin="round"
       class="strokes"
       id="g4">
      <path
         d="M 10,17 15,12 10,7"
         style="fill:none;stroke:#000000;stroke-width:2;stroke-opacity:1"
         class="stroke-shape"
         id="path4" />
    </g>
    <path
       d="M 15,12 H 3"
       style="fill:none"
       class="fills"
       id="path5" />
    <g
       stroke-linejoin="round"
       stroke-linecap="round"
       class="strokes"
       id="g6">
      <path
         d="M 15,12 H 3"
         style="fill:none;stroke:#000000;stroke-width:2;stroke-opacity:1"
         class="stroke-shape"
         id="path6" />
    </g>
  </g>
</svg>
